<svg width="115" height="115" viewBox="0 0 115 115" fill="none" xmlns="http://www.w3.org/2000/svg">
<g filter="url(#filter0_d_279_917)">
<path d="M57.2251 112.162C88.1978 112.162 113.306 87.0538 113.306 56.0811C113.306 25.1083 88.1978 0 57.2251 0C26.2524 0 1.14404 25.1083 1.14404 56.0811C1.14404 87.0538 26.2524 112.162 57.2251 112.162Z" fill="url(#paint0_linear_279_917)"/>
<path d="M57.2251 1.69727C87.2604 1.69727 111.609 26.0457 111.609 56.0811C111.609 86.1164 87.2604 110.465 57.2251 110.465C27.1898 110.465 2.84131 86.1164 2.84131 56.0811C2.84131 26.0457 27.1898 1.69727 57.2251 1.69727Z" stroke="url(#paint1_linear_279_917)" stroke-width="3.39453" stroke-miterlimit="10" stroke-linejoin="bevel"/>
</g>
<g filter="url(#filter1_d_279_917)">
<path d="M57.2259 106.976C85.3345 106.976 108.121 84.1899 108.121 56.0813C108.121 27.9727 85.3345 5.18614 57.2259 5.18614C29.1173 5.18614 6.33081 27.9727 6.33081 56.0813C6.33081 84.1899 29.1173 106.976 57.2259 106.976Z" fill="url(#paint2_linear_279_917)"/>
<path d="M57.2259 106.976C85.3345 106.976 108.121 84.1899 108.121 56.0813C108.121 27.9727 85.3345 5.18614 57.2259 5.18614C29.1173 5.18614 6.33081 27.9727 6.33081 56.0813C6.33081 84.1899 29.1173 106.976 57.2259 106.976Z" stroke="url(#paint3_linear_279_917)" stroke-width="0.242466" stroke-miterlimit="10" stroke-linejoin="bevel"/>
</g>
<path d="M67.2913 94.3463H44.9949V94.9138H67.2913V94.3463Z" fill="#B67C2B"/>
<path d="M66.9684 94.0017L71.0832 84.4142H70.5156C70.5156 84.4142 67.7387 89.887 64.455 89.887C60.9484 89.887 63.3807 83.3602 63.3807 83.3602H62.6105C62.6105 83.3602 62.3875 86.1979 59.489 85.9952C55.7391 85.7317 56.7932 79.0428 56.7932 79.0428H56.3067H55.7797C55.7797 79.0428 56.9959 85.7317 53.246 85.7317C51.3609 85.7317 50.2056 83.1778 50.2056 83.1778H49.4353C49.4353 83.1778 50.1245 89.9072 46.6179 89.9072C44.2463 89.9072 42.2599 84.0088 42.2599 84.0088H41.6924L45.3814 94.022H66.9684V94.0017Z" fill="#B67C2B"/>
<path d="M71.8531 84.4566C71.8531 85.0242 71.3869 85.4904 70.8194 85.4904C70.2518 85.4904 69.7856 85.0242 69.7856 84.4566C69.7856 83.8891 70.2518 83.4229 70.8194 83.4229C71.3869 83.4229 71.8531 83.8891 71.8531 84.4566Z" fill="#B67C2B"/>
<path d="M50.8907 83.0956C50.8907 83.6631 50.4245 84.1293 49.857 84.1293C49.2894 84.1293 48.8232 83.6631 48.8232 83.0956C48.8232 82.528 49.2894 82.0618 49.857 82.0618C50.4245 82.0618 50.8907 82.528 50.8907 83.0956Z" fill="#B67C2B"/>
<path d="M43.0306 84.0077C43.0306 84.5753 42.5644 85.0415 41.9969 85.0415C41.4293 85.0415 40.9631 84.5753 40.9631 84.0077C40.9631 83.4402 41.4293 82.974 41.9969 82.974C42.5644 82.974 43.0306 83.4402 43.0306 84.0077Z" fill="#B67C2B"/>
<path d="M63.9442 83.3778C63.9442 83.9453 63.478 84.4115 62.9105 84.4115C62.3429 84.4115 61.8767 83.9453 61.8767 83.3778C61.8767 82.8102 62.3429 82.344 62.9105 82.344C63.478 82.344 63.9442 82.8102 63.9442 83.3778Z" fill="#B67C2B"/>
<path d="M57.6273 78.981C57.6273 79.7512 56.9989 80.3998 56.2084 80.3998C55.4179 80.3998 54.7896 79.7715 54.7896 78.981C54.7896 78.1905 55.4179 77.5621 56.2084 77.5621C56.9989 77.5621 57.6273 78.1905 57.6273 78.981Z" fill="#B67C2B"/>
<path d="M57.2175 87.8186L57.8864 89.3996L56.3864 92.9468L54.8865 89.3996L56.3864 85.8322L57.2175 87.8186Z" fill="white"/>
<path d="M52.6772 89.4003C52.6772 89.8462 52.3124 90.2111 51.8664 90.2111C51.4205 90.2111 51.0557 89.8462 51.0557 89.4003C51.0557 88.9544 51.4205 88.5895 51.8664 88.5895C52.3124 88.5895 52.6772 88.9544 52.6772 89.4003Z" fill="white"/>
<path d="M61.7365 89.4003C61.7365 89.8462 61.3717 90.2111 60.9258 90.2111C60.4798 90.2111 60.115 89.8462 60.115 89.4003C60.115 88.9544 60.4798 88.5895 60.9258 88.5895C61.3717 88.5895 61.7365 88.9544 61.7365 89.4003Z" fill="white"/>
<g opacity="0.3">
<path d="M67.2911 94.8329H44.9946V95.4005H67.2911V94.8329Z" fill="#B67C2B"/>
<path d="M66.9682 95.7462L71.0829 105.334H70.5154C70.5154 105.334 67.7384 99.8609 64.4548 99.8609C60.9482 99.8609 63.3805 106.388 63.3805 106.388H62.6103C62.6103 106.388 62.3873 103.55 59.4888 103.753C55.7389 104.016 56.7929 110.705 56.7929 110.705H56.3064H55.7794C55.7794 110.705 56.9956 104.016 53.2458 104.016C51.3607 104.016 50.2053 106.57 50.2053 106.57H49.4351C49.4351 106.57 50.1242 99.8406 46.6176 99.8406C44.2461 99.8406 42.2597 105.739 42.2597 105.739H41.6921L45.3812 95.7259H66.9682V95.7462Z" fill="#B67C2B"/>
<path d="M71.8529 105.292C71.8529 104.724 71.3867 104.258 70.8191 104.258C70.2516 104.258 69.7854 104.724 69.7854 105.292C69.7854 105.859 70.2516 106.326 70.8191 106.326C71.3867 106.326 71.8529 105.859 71.8529 105.292Z" fill="#B67C2B"/>
<path d="M50.8905 106.629C50.8905 106.062 50.4243 105.596 49.8567 105.596C49.2892 105.596 48.823 106.062 48.823 106.629C48.823 107.197 49.2892 107.663 49.8567 107.663C50.4243 107.663 50.8905 107.197 50.8905 106.629Z" fill="#B67C2B"/>
<path d="M43.0304 105.737C43.0304 105.17 42.5642 104.703 41.9966 104.703C41.4291 104.703 40.9629 105.17 40.9629 105.737C40.9629 106.305 41.4291 106.771 41.9966 106.771C42.5642 106.771 43.0304 106.305 43.0304 105.737Z" fill="#B67C2B"/>
<path d="M63.944 106.345C63.944 105.778 63.4778 105.311 62.9102 105.311C62.3427 105.311 61.8765 105.778 61.8765 106.345C61.8765 106.913 62.3427 107.379 62.9102 107.379C63.4778 107.379 63.944 106.913 63.944 106.345Z" fill="#B67C2B"/>
<path d="M57.627 110.744C57.627 109.974 56.9987 109.325 56.2082 109.325C55.4177 109.325 54.7893 109.953 54.7893 110.744C54.7893 111.534 55.4177 112.163 56.2082 112.163C56.9987 112.163 57.627 111.534 57.627 110.744Z" fill="#B67C2B"/>
<path d="M56.3862 96.7794L54.8862 100.347L56.3862 103.894L57.8861 100.347L56.3862 96.7794Z" fill="white"/>
<path d="M52.677 100.345C52.677 99.8992 52.3121 99.5344 51.8662 99.5344C51.4203 99.5344 51.0554 99.8992 51.0554 100.345C51.0554 100.791 51.4203 101.156 51.8662 101.156C52.3121 101.156 52.677 100.791 52.677 100.345Z" fill="white"/>
<path d="M61.7363 100.345C61.7363 99.8992 61.3715 99.5344 60.9255 99.5344C60.4796 99.5344 60.1147 99.8992 60.1147 100.345C60.1147 100.791 60.4796 101.156 60.9255 101.156C61.3715 101.156 61.7363 100.791 61.7363 100.345Z" fill="white"/>
</g>
<path d="M30.4063 54.3131C30.4063 54.4738 30.4706 54.6024 30.567 54.6666C30.7277 54.7952 30.9205 54.9237 31.1133 55.0844C31.3061 55.2451 31.5311 55.4058 31.7239 55.5665C31.9167 55.7272 32.1095 55.8878 32.3023 56.0164C32.4952 56.1449 32.6237 56.2735 32.7523 56.3699C33.17 56.6913 33.5557 57.2376 33.877 57.9767C34.1984 58.7159 34.3912 59.6157 34.3912 60.6762C34.3912 60.9012 34.3912 61.1261 34.3912 61.3511C34.3912 61.576 34.3591 61.8331 34.2948 62.0902C34.1341 62.9901 33.877 63.922 33.5557 64.854C33.2343 65.7859 32.8165 66.7179 32.3023 67.5856C31.7882 68.4533 31.2418 69.321 30.5991 70.0923C29.9564 70.8635 29.2494 71.5705 28.4781 72.149C27.7068 72.7275 26.8712 73.2095 25.9393 73.5309C25.0073 73.8523 24.0754 74.0451 23.047 74.0451C22.0186 74.0451 21.0866 73.8201 20.3154 73.3702C19.5441 72.9203 18.9013 72.3418 18.4193 71.6348C17.9372 70.9278 17.5516 70.0923 17.3267 69.1924C17.1017 68.2926 16.9731 67.3606 16.9731 66.3965C16.9731 65.2396 17.1017 64.0827 17.3267 62.8615C17.5516 61.6403 17.8408 60.4834 18.1622 59.3907C18.355 58.748 18.58 58.1053 18.7728 57.5268C18.9656 56.9484 19.1906 56.4342 19.3834 55.9521C19.5762 55.4701 19.769 55.0844 19.9297 54.7631C20.0904 54.4417 20.219 54.1846 20.3475 53.9918C20.476 53.7668 20.5725 53.6383 20.6689 53.5419C20.7653 53.4455 20.8296 53.4133 20.8938 53.4133C20.9581 53.4133 21.0224 53.4776 21.0545 53.574C21.0866 53.6704 21.1188 53.8311 21.1188 53.9918C21.1188 54.1203 21.1188 54.281 21.1188 54.4417C21.1188 54.6024 21.0545 54.7631 21.0224 54.8916C20.7331 55.5986 20.476 56.3378 20.219 57.0448C19.9619 57.7518 19.7369 58.4909 19.5119 59.2301C19.287 59.9692 19.1584 60.7083 19.0299 61.4475C18.9014 62.1866 18.8371 62.9258 18.8371 63.6971C18.8371 64.4683 18.9335 65.2075 19.0942 65.9145C19.2549 66.6215 19.5762 67.2642 19.994 67.8106C20.4118 68.3569 20.926 68.8068 21.6008 69.1282C22.2757 69.4495 23.0791 69.6102 24.0432 69.6102C24.9109 69.6102 25.8107 69.4495 26.6784 69.1603C27.5461 68.8711 28.3817 68.4212 29.153 67.907C29.9242 67.3928 30.5991 66.75 31.1776 66.043C31.756 65.336 32.2059 64.5648 32.4952 63.7613L32.688 62.9258C32.6559 62.733 32.5273 62.4759 32.2702 62.1866C32.0131 61.8974 31.7239 61.5439 31.3704 61.1904C31.0169 60.8369 30.5991 60.4512 30.1492 60.0656C29.6993 59.68 29.2172 59.3265 28.703 58.973C28.4138 58.7801 28.221 58.5552 28.1246 58.2981C28.0282 58.041 27.9639 57.7839 27.9639 57.559C27.9639 57.334 27.996 57.0769 28.0924 56.8519C28.2853 56.402 28.4781 55.9843 28.6709 55.5665C28.8637 55.1487 29.0887 54.7631 29.2815 54.3453H30.4384L30.4063 54.3131ZM20.1547 78.9941C20.5403 78.5121 20.926 78.03 21.3437 77.5158C21.7615 77.0016 22.1472 76.5839 22.4685 76.1661C22.5328 76.1018 22.5971 76.0697 22.6292 76.0697C22.6935 76.0697 22.7577 76.1018 22.8863 76.1982C23.2077 76.4232 23.5933 76.7124 24.0111 77.0016C24.4289 77.2909 24.8145 77.6122 25.2001 77.9015C25.5536 77.4516 25.9393 77.0016 26.3249 76.5517C26.7106 76.1018 27.0319 75.684 27.3533 75.2984C27.4176 75.2341 27.4818 75.202 27.514 75.202C27.5783 75.202 27.6425 75.2341 27.7711 75.3305C28.0924 75.5555 28.4781 75.8126 28.8959 76.134C29.3136 76.4553 29.6993 76.7446 30.0849 77.0016C30.1492 77.0659 30.2135 77.1302 30.2456 77.1623C30.2777 77.1945 30.3099 77.2587 30.3099 77.2909C30.3099 77.323 30.2777 77.3873 30.1813 77.4837L27.8996 80.2474C27.8996 80.2474 27.8353 80.3117 27.8032 80.376C27.7711 80.4403 27.7389 80.4403 27.7068 80.4403C27.6425 80.4403 27.5783 80.4403 27.4818 80.3439C27.1283 80.1189 26.7427 79.8297 26.3249 79.5083C25.9072 79.1869 25.5215 78.8656 25.1359 78.5442L23.0148 81.1151C23.0148 81.1151 22.9506 81.1794 22.9184 81.2437C22.8863 81.308 22.8542 81.308 22.822 81.308C22.7578 81.308 22.6935 81.308 22.5971 81.2116C22.2436 80.9866 21.8579 80.6974 21.4401 80.3439C21.0224 79.9904 20.6367 79.669 20.2511 79.3476C20.1225 79.2512 20.0583 79.1869 20.0583 79.1227C20.0583 79.1227 20.0583 79.0584 20.0904 79.0263C20.1225 78.9941 20.1547 78.962 20.1547 78.9298V78.9941Z" fill="url(#paint4_linear_279_917)"/>
<path d="M24.3015 34.647C24.6871 34.1649 25.0728 33.6829 25.4906 33.1687C25.9083 32.6545 26.294 32.2367 26.6153 31.8189C26.6796 31.7547 26.7439 31.7225 26.776 31.7225C26.8403 31.7225 26.9046 31.7547 27.0331 31.8511C27.3545 32.076 27.7401 32.3652 28.1579 32.6545C28.5757 32.9437 28.9613 33.2651 29.3469 33.5543C29.7005 33.1044 30.0861 32.6545 30.4717 32.2046C30.8574 31.7546 31.1787 31.3369 31.5001 30.9512C31.5644 30.887 31.6287 30.8548 31.6608 30.8548C31.7251 30.8548 31.7893 30.887 31.9179 30.9834C32.2393 31.2083 32.6249 31.4654 33.0427 31.7868C33.4604 32.1082 33.8461 32.3974 34.2317 32.6545C34.296 32.7188 34.3603 32.783 34.3924 32.8152C34.4245 32.8473 34.4567 32.9116 34.4567 32.9437C34.4567 32.9758 34.4246 33.0401 34.3281 33.1365L32.0464 35.9003C32.0464 35.9003 31.9822 35.9646 31.95 36.0288C31.9179 36.0931 31.8857 36.0931 31.8536 36.0931C31.7893 36.0931 31.7251 36.0931 31.6287 35.9967C31.2752 35.7717 30.8895 35.4825 30.4717 35.1611C30.054 34.8398 29.6683 34.5184 29.2827 34.197L27.1617 36.768C27.1617 36.768 27.0974 36.8322 27.0652 36.8965C27.0331 36.9608 27.001 36.9608 26.9688 36.9608C26.9046 36.9608 26.8403 36.9608 26.7439 36.8644C26.3904 36.6394 26.0047 36.3502 25.587 35.9967C25.1692 35.6432 24.7835 35.3218 24.3979 35.0005C24.2694 34.904 24.2051 34.8398 24.2051 34.7755C24.2051 34.7755 24.2051 34.7112 24.2372 34.6791C24.2694 34.647 24.3015 34.6148 24.3015 34.5827V34.647Z" fill="url(#paint5_linear_279_917)"/>
<path d="M28.3448 55.9838C28.5697 55.4696 28.859 54.9233 29.1803 54.3448C29.5017 53.7664 29.8231 53.1879 30.1444 52.6095C30.4658 52.031 30.7229 51.4525 30.9479 50.8741C31.1728 50.2956 31.2692 49.7172 31.2692 49.1387C31.2692 48.5281 31.1728 47.9496 31.0121 47.3712C30.8515 46.7927 30.6586 46.2785 30.4015 45.7965C30.1444 45.3144 29.8874 44.8967 29.5981 44.5753C29.3089 44.2539 29.0197 43.9968 28.7626 43.8361C28.8911 43.5148 28.9875 43.1613 29.1161 42.8078C29.2446 42.4543 29.3732 42.0686 29.5017 41.683C29.6303 41.2973 29.7588 40.976 29.8874 40.6546C30.0159 40.3332 30.1123 40.044 30.1766 39.8191C30.755 39.9797 31.2371 40.2368 31.687 40.6546C32.1369 41.0724 32.5226 41.5544 32.8439 42.1329C33.1653 42.7114 33.4224 43.3541 33.5831 44.029C33.7438 44.7038 33.8402 45.4108 33.8402 46.0857C33.8402 46.7285 33.7759 47.3712 33.6473 47.9818C33.5188 48.5924 33.326 49.203 33.101 49.8136C32.8761 50.4242 32.5868 51.0026 32.2976 51.549C32.0084 52.0953 31.687 52.6737 31.3335 53.2522C31.205 53.445 31.0764 53.67 30.9157 53.9592C30.755 54.2484 30.5944 54.5055 30.4337 54.7948L29.9195 55.6625C29.7588 55.9517 29.5981 56.2088 29.4374 56.4659L28.2805 55.9517L28.3448 55.9838Z" fill="url(#paint6_linear_279_917)"/>
<path d="M37.5052 62.6532C37.4669 62.3085 37.4286 62.0021 37.3903 61.6958C37.3521 61.3894 37.3521 61.083 37.3521 60.7767V60.3937C37.3521 60.3937 37.3521 59.9342 37.3521 59.5512C37.3521 59.1682 37.3903 58.6704 37.4286 58.0194C37.4669 57.3683 37.5052 56.5641 37.5818 55.5684C37.6584 54.5727 37.6967 53.3473 37.7733 51.9686C37.8499 50.59 37.9648 48.905 38.0797 46.9902C38.0797 46.7987 38.0797 46.6072 38.118 46.3775C38.1563 46.1477 38.1946 45.9945 38.2329 45.8413L39.7264 42.1266C39.7264 42.1266 39.8413 41.8586 39.9179 41.7054C39.9945 41.5522 40.071 41.5139 40.1859 41.5139C40.2625 41.5139 40.3008 41.5139 40.3391 41.6288C40.3774 41.7437 40.3774 41.8969 40.3774 42.2415C40.3774 42.5862 40.3774 43.0457 40.3391 43.6967C40.3008 44.3478 40.2625 45.1903 40.1859 46.3009C40.1093 47.4114 40.0327 48.7901 39.9562 50.4368C39.8796 52.0835 39.7264 54.1132 39.6115 56.4875C39.6115 56.9854 39.6115 57.5598 39.6881 58.2108C39.7647 58.8619 39.803 59.4363 39.9179 60.0107L37.5052 62.5766V62.6532Z" fill="url(#paint7_linear_279_917)"/>
<path d="M37.9249 73.0651C38.3844 72.4907 38.844 71.9162 39.3418 71.3035C39.8397 70.6908 40.2992 70.1929 40.6822 69.6951C40.7588 69.6185 40.8354 69.5802 40.8737 69.5802C40.9502 69.5802 41.0268 69.6185 41.18 69.7334C41.563 70.0015 41.9842 70.3078 42.4438 70.6525C42.9033 70.9971 43.3629 71.3418 43.7841 71.6482C43.8607 71.7248 43.9373 71.8014 43.9756 71.8397C44.0139 71.8779 44.0522 71.9545 44.0522 71.9928C44.0522 72.0311 44.0139 72.1077 43.899 72.2226L41.18 75.516C41.18 75.516 41.1034 75.5926 41.0651 75.6692C41.0268 75.7458 40.9885 75.7458 40.9502 75.7458C40.8737 75.7458 40.7971 75.7458 40.6822 75.6309C40.2609 75.3629 39.8014 75.0182 39.3418 74.6352C38.8823 74.2523 38.4227 73.8693 37.9632 73.4864C37.81 73.3715 37.7334 73.2949 37.7334 73.2183C37.7334 73.2183 37.7334 73.1417 37.7717 73.1034C37.81 73.0651 37.8483 73.0268 37.8483 72.9885L37.9249 73.0651Z" fill="url(#paint8_linear_279_917)"/>
<path d="M39.7999 59.5552C39.9914 60.4743 40.3361 61.2019 40.8339 61.7381C41.3317 62.2742 42.0977 62.5423 43.0933 62.5423C43.8593 62.5423 44.6252 62.4274 45.3528 62.1593C46.0804 61.8912 46.7697 61.5083 47.3059 61.0104C47.6888 60.6658 48.0335 60.3211 48.3399 59.9382C48.6462 59.5552 49.0292 59.2488 49.4887 59.0191C49.4887 59.1722 49.4887 59.402 49.4887 59.6701C49.4887 59.9382 49.4887 60.2445 49.4504 60.5509C49.4121 60.8573 49.4121 61.1636 49.4121 61.47C49.4121 61.7764 49.4121 62.0061 49.4121 62.1593C48.9909 62.772 48.5313 63.3848 48.0335 63.9975C47.5357 64.6103 46.9612 65.1847 46.3102 65.7208C45.6592 66.257 45.0081 66.6399 44.3188 66.9846C43.6295 67.3292 42.8253 67.4824 42.0211 67.4824C41.2551 67.4824 40.6041 67.3292 40.068 66.9846C39.5318 66.6399 39.034 66.2187 38.651 65.6825C38.2681 65.1464 38 64.572 37.7702 63.8826C37.5405 63.1933 37.4639 62.5423 37.4639 61.8912L39.8382 59.5552H39.7999Z" fill="url(#paint9_linear_279_917)"/>
<path d="M48.8052 62.7666C48.6138 62.7666 48.3457 62.7283 48.1159 62.69C47.8861 62.6517 47.5798 62.69 47.2734 62.69H46.967C47.1202 62.3453 47.2734 61.9624 47.4649 61.5411C47.6564 61.1198 47.8861 60.6986 48.1542 60.2773C48.4223 59.8561 48.652 59.5497 48.9584 59.2817C49.2648 59.0136 49.5329 58.8604 49.8392 58.8604C49.9158 58.8604 50.069 58.8987 50.3754 59.0136C50.6817 59.1285 51.0264 59.2051 51.3711 59.3199C51.7157 59.4348 52.137 59.5497 52.4816 59.6263C52.8263 59.7029 53.1709 59.7795 53.3624 59.7795C53.822 59.7795 54.2815 59.6646 54.7411 59.3965C55.2006 59.1285 55.6219 58.8604 55.89 58.5157C56.0048 58.4009 56.1197 58.2094 56.2346 58.0179C56.3495 57.8264 56.5027 57.5583 56.6559 57.3286C56.809 57.0988 56.9239 56.8307 57.0771 56.5627L57.3835 55.9116C57.4984 55.7201 57.6133 55.6053 57.8047 55.6053C57.9962 55.6053 58.1111 55.7584 58.1111 56.0265L57.6899 57.7881C58.3026 57.7115 58.9153 57.4818 59.4515 57.0988C59.9876 56.7158 60.4471 56.3712 60.7918 55.9882C60.8684 55.9116 60.9833 55.7584 61.0599 55.6053C61.1365 55.4521 61.2131 55.2989 61.2897 55.1074C61.3662 54.9159 61.4045 54.7628 61.4811 54.6096C61.5577 54.4564 61.596 54.3032 61.6343 54.1883C61.7492 53.9585 61.8641 53.7671 61.979 53.6139C62.0939 53.4607 62.2088 53.3841 62.2853 53.3841C62.4002 53.3841 62.4768 53.5373 62.4768 53.8054C62.4768 53.9585 62.4385 54.1117 62.4002 54.2649C62.3619 54.4181 62.3236 54.6096 62.2853 54.7628C62.247 54.9159 62.2088 55.1074 62.1705 55.2606C62.1322 55.4138 62.1322 55.5287 62.1322 55.6053C62.1322 55.6819 62.1322 55.6819 62.1705 55.6819C62.3619 55.6819 62.5917 55.6053 62.8981 55.4904C63.2044 55.3755 63.4725 55.184 63.7789 54.9925C64.0852 54.801 64.315 54.6096 64.5831 54.3798C64.8512 54.15 64.966 53.9968 65.0809 53.8437C65.2724 53.5373 65.4256 53.1926 65.5788 52.8097C65.732 52.4267 65.8468 52.1203 65.9617 51.814C65.9617 51.814 65.9617 51.7374 66.0383 51.6225C66.1149 51.5076 66.1532 51.431 66.1915 51.3544C66.2298 51.2778 66.3447 51.2012 66.383 51.1247C66.4213 51.0481 66.4979 51.0098 66.5362 51.0098C66.6511 51.0098 66.6894 51.0864 66.7277 51.2012C66.7659 51.3161 66.7659 51.4693 66.7659 51.6225C66.7659 51.9672 66.7659 52.3118 66.6894 52.6182C66.6128 52.9246 66.5745 53.2309 66.4596 53.5373C66.3064 54.1117 66.0383 54.6479 65.732 55.1457C65.4256 55.6436 65.0809 56.1031 64.6597 56.5244C64.2384 56.9456 63.8555 57.3669 63.3959 57.7498C62.9364 58.1328 62.4768 58.4774 61.9407 58.8604C61.9407 58.8604 61.7492 58.9753 61.4045 59.1668C61.0599 59.3582 60.6769 59.588 60.1791 59.8944C59.6812 60.2007 59.1451 60.5071 58.5707 60.8518C57.9962 61.1964 57.4218 61.5411 56.8473 61.8475C56.2729 62.1538 55.7751 62.4602 55.3538 62.7283L54.3581 63.341C53.9369 63.6474 53.439 63.8006 52.9029 63.8006C52.6348 63.8006 52.2901 63.7623 51.8689 63.6474C51.4476 63.5325 51.0264 63.4176 50.6051 63.3027C50.1839 63.1878 49.8009 63.0346 49.4563 62.9198C49.1116 62.8049 48.9201 62.7283 48.8052 62.7283V62.7666Z" fill="url(#paint10_linear_279_917)"/>
<path d="M70.9374 62.6532C70.8991 62.3085 70.8608 62.0021 70.8225 61.6958C70.7842 61.3894 70.7842 61.083 70.7842 60.7767V60.3937C70.7842 60.3937 70.7842 59.9342 70.7842 59.5512C70.7842 59.1682 70.8225 58.6704 70.8608 58.0194C70.8991 57.3683 70.9374 56.5641 71.014 55.5684C71.0906 54.5727 71.1288 53.3473 71.2054 51.9686C71.282 50.59 71.3969 48.905 71.5118 46.9902C71.5118 46.7987 71.5118 46.6072 71.5501 46.3775C71.5884 46.1477 71.6267 45.9945 71.665 45.8413L73.1585 42.1266C73.1585 42.1266 73.2734 41.8586 73.35 41.7054C73.4266 41.5522 73.5032 41.5139 73.6181 41.5139C73.6947 41.5139 73.733 41.5139 73.7713 41.6288C73.8096 41.7437 73.8095 41.8969 73.8095 42.2415C73.8095 42.5862 73.8096 43.0457 73.7713 43.6967C73.733 44.3478 73.6947 45.1903 73.6181 46.3009C73.5415 47.4114 73.4649 48.7901 73.3883 50.4368C73.3117 52.0835 73.1585 54.1132 73.0436 56.4875C73.0436 56.9854 73.0436 57.5598 73.1202 58.2108C73.1968 58.8619 73.2351 59.4363 73.35 60.0107L70.9374 62.5766V62.6532Z" fill="url(#paint11_linear_279_917)"/>
<path d="M76.8389 50.2072C77.2985 49.6328 77.758 49.0584 78.2559 48.4456C78.7537 47.8329 79.2133 47.335 79.5962 46.8372C79.6728 46.7606 79.7494 46.7223 79.7877 46.7223C79.8643 46.7223 79.9409 46.7606 80.0941 46.8755C80.477 47.1436 80.8983 47.4499 81.3578 47.7946C81.8174 48.1393 82.2769 48.4839 82.6982 48.7903C82.7748 48.8669 82.8514 48.9435 82.8897 48.9818C82.928 49.0201 82.9663 49.0966 82.9663 49.1349C82.9663 49.1732 82.928 49.2498 82.8131 49.3647L80.0941 52.6582C80.0941 52.6582 80.0175 52.7347 79.9792 52.8113C79.9409 52.8879 79.9026 52.8879 79.8643 52.8879C79.7877 52.8879 79.7111 52.8879 79.5962 52.773C79.175 52.505 78.7154 52.1603 78.2559 51.7774C77.7963 51.3944 77.3368 51.0114 76.8772 50.6285C76.724 50.5136 76.6475 50.437 76.6475 50.3604C76.6475 50.3604 76.6475 50.2838 76.6858 50.2455C76.724 50.2072 76.7623 50.1689 76.7623 50.1306L76.8389 50.2072Z" fill="url(#paint12_linear_279_917)"/>
<path d="M73.2274 59.5552C73.4189 60.4743 73.7635 61.2019 74.2614 61.7381C74.7592 62.2742 75.5251 62.5423 76.5208 62.5423C77.2867 62.5423 78.0527 62.4274 78.7803 62.1593C79.5079 61.8912 80.1972 61.5083 80.7334 61.0104C81.1163 60.6658 81.461 60.3211 81.7674 59.9382C82.0737 59.5552 82.4567 59.2488 82.9162 59.0191C82.9162 59.1722 82.9162 59.402 82.9162 59.6701C82.9162 59.9382 82.9162 60.2445 82.8779 60.5509C82.8396 60.8573 82.8396 61.1636 82.8396 61.47C82.8396 61.7764 82.8396 62.0061 82.8396 62.1593C82.4184 62.772 81.9588 63.3848 81.461 63.9975C80.9631 64.6103 80.3887 65.1847 79.7377 65.7208C79.0866 66.257 78.4356 66.6399 77.7463 66.9846C77.057 67.3292 76.2528 67.4824 75.4485 67.4824C74.6826 67.4824 74.0316 67.3292 73.4955 66.9846C72.9593 66.6399 72.4615 66.2187 72.0785 65.6825C71.6956 65.1464 71.4275 64.572 71.1977 63.8826C70.9679 63.1933 70.8914 62.5423 70.8914 61.8912L73.2657 59.5552H73.2274Z" fill="url(#paint13_linear_279_917)"/>
<path d="M82.2357 62.7697C82.0442 62.7697 81.7761 62.7314 81.5463 62.6931C81.3166 62.6548 81.0102 62.6931 80.7038 62.6931H80.3975C80.5506 62.3102 80.6655 62.0038 80.7421 61.8506C80.8187 61.6974 80.857 61.5442 80.8953 61.4293C80.9719 61.2379 81.0868 61.0081 81.2783 60.74C81.4697 60.472 81.6612 60.1656 81.891 59.8975C82.1208 59.6294 82.3505 59.3997 82.5803 59.2082C82.8101 59.0167 83.0399 58.9018 83.2696 58.9018C83.3462 58.9018 83.4994 58.9401 83.7675 59.055C84.0356 59.1699 84.3802 59.2465 84.7249 59.3614C85.0695 59.4763 85.4525 59.5911 85.7972 59.6677C86.1418 59.7443 86.4482 59.8209 86.678 59.8209C87.0992 59.8209 87.4822 59.706 87.7885 59.5146C88.0949 59.3231 88.4013 59.0933 88.6693 58.7869C88.9374 58.4806 89.2055 58.1742 89.4353 57.8678C89.665 57.5615 89.8948 57.2168 90.1629 56.9487C90.5458 56.4892 90.9288 56.1062 91.3883 55.7999C91.8479 55.4935 92.3074 55.1871 92.8436 54.9574C93.1117 54.4212 93.3797 53.9617 93.5329 53.617C93.6861 53.2723 93.8776 52.966 93.9925 52.7745C94.1073 52.583 94.2222 52.4298 94.2988 52.315C94.3754 52.2001 94.452 52.1618 94.4903 52.1618C94.6052 52.1618 94.7201 52.1618 94.835 52.2767C94.9499 52.3915 95.0647 52.4298 95.1413 52.5064C95.4094 52.7362 95.6392 53.0043 95.9455 53.3489C96.2519 53.6936 96.4434 54 96.6732 54.3446C96.9029 54.6893 97.0944 55.0722 97.2476 55.4552C97.4008 55.8382 97.4774 56.2211 97.4774 56.6041C97.4774 56.6807 97.4774 56.7573 97.4391 56.8339C97.4008 56.9104 97.3242 57.1402 97.1327 57.4466C96.9412 57.753 96.7115 58.2125 96.3668 58.8252C96.0221 59.438 95.5243 60.2805 94.8733 61.3911C94.7584 61.5825 94.6435 61.6974 94.5286 61.6974C94.452 61.6974 94.4137 61.6974 94.3754 61.6208C94.1456 61.4676 93.9159 61.3528 93.6861 61.1996C93.4563 61.0464 93.1882 60.8932 92.9585 60.7783C92.7287 60.6634 92.4606 60.5485 92.1925 60.472C91.9245 60.3954 91.6564 60.3188 91.3883 60.3188C91.1969 60.3188 91.0054 60.3188 90.7756 60.4337C90.5458 60.5485 90.3544 60.5868 90.1246 60.6634C89.8948 60.74 89.7033 60.8549 89.5119 61.0081C89.3204 61.1613 89.1672 61.2762 89.0523 61.3911C88.8608 61.5825 88.5928 61.8506 88.2481 62.1187C87.9034 62.3867 87.5971 62.6548 87.2141 62.9229C86.8311 63.191 86.4865 63.3824 86.1418 63.5739C85.7972 63.7654 85.4908 63.842 85.2227 63.842C84.8398 63.842 84.4568 63.7271 84.0739 63.5356C83.8058 63.3824 83.4994 63.2675 83.1931 63.191C82.8867 63.1144 82.5803 63.0378 82.2739 62.9612L82.2357 62.7697Z" fill="url(#paint14_linear_279_917)"/>
<defs>
<filter id="filter0_d_279_917" x="7.58171e-05" y="0" width="114.45" height="114.45" filterUnits="userSpaceOnUse" color-interpolation-filters="sRGB">
<feFlood flood-opacity="0" result="BackgroundImageFix"/>
<feColorMatrix in="SourceAlpha" type="matrix" values="0 0 0 0 0 0 0 0 0 0 0 0 0 0 0 0 0 0 127 0" result="hardAlpha"/>
<feOffset dy="1.14397"/>
<feGaussianBlur stdDeviation="0.571984"/>
<feComposite in2="hardAlpha" operator="out"/>
<feColorMatrix type="matrix" values="0 0 0 0 0 0 0 0 0 0 0 0 0 0 0 0 0 0 0.25 0"/>
<feBlend mode="normal" in2="BackgroundImageFix" result="effect1_dropShadow_279_917"/>
<feBlend mode="normal" in="SourceGraphic" in2="effect1_dropShadow_279_917" result="shape"/>
</filter>
<filter id="filter1_d_279_917" x="5.06551" y="5.06491" width="104.321" height="104.321" filterUnits="userSpaceOnUse" color-interpolation-filters="sRGB">
<feFlood flood-opacity="0" result="BackgroundImageFix"/>
<feColorMatrix in="SourceAlpha" type="matrix" values="0 0 0 0 0 0 0 0 0 0 0 0 0 0 0 0 0 0 127 0" result="hardAlpha"/>
<feOffset dy="1.14397"/>
<feGaussianBlur stdDeviation="0.571984"/>
<feComposite in2="hardAlpha" operator="out"/>
<feColorMatrix type="matrix" values="0 0 0 0 0 0 0 0 0 0 0 0 0 0 0 0 0 0 0.25 0"/>
<feBlend mode="normal" in2="BackgroundImageFix" result="effect1_dropShadow_279_917"/>
<feBlend mode="normal" in="SourceGraphic" in2="effect1_dropShadow_279_917" result="shape"/>
</filter>
<linearGradient id="paint0_linear_279_917" x1="57.2251" y1="0" x2="57.2251" y2="112.162" gradientUnits="userSpaceOnUse">
<stop stop-color="#491941"/>
<stop offset="1" stop-color="#AF3C9C"/>
</linearGradient>
<linearGradient id="paint1_linear_279_917" x1="0.145449" y1="56.0811" x2="114.285" y2="56.0811" gradientUnits="userSpaceOnUse">
<stop offset="0.04" stop-color="#B67C2B"/>
<stop offset="0.18" stop-color="#B67D2D"/>
<stop offset="0.25" stop-color="#B98234"/>
<stop offset="0.3" stop-color="#BD8A41"/>
<stop offset="0.34" stop-color="#C49554"/>
<stop offset="0.38" stop-color="#CCA46C"/>
<stop offset="0.42" stop-color="#D6B689"/>
<stop offset="0.45" stop-color="#E2CCAD"/>
<stop offset="0.48" stop-color="#F0E4D4"/>
<stop offset="0.51" stop-color="white"/>
<stop offset="0.54" stop-color="#F5EDE2"/>
<stop offset="0.6" stop-color="#E4D0B2"/>
<stop offset="0.66" stop-color="#D6B689"/>
<stop offset="0.72" stop-color="#CBA267"/>
<stop offset="0.79" stop-color="#C2924D"/>
<stop offset="0.86" stop-color="#BC863A"/>
<stop offset="0.92" stop-color="#B8802F"/>
<stop offset="1" stop-color="#B77E2C"/>
</linearGradient>
<linearGradient id="paint2_linear_279_917" x1="57.2259" y1="5.18614" x2="57.2259" y2="106.976" gradientUnits="userSpaceOnUse">
<stop stop-color="#491941"/>
<stop offset="1" stop-color="#AF3C9C"/>
</linearGradient>
<linearGradient id="paint3_linear_279_917" x1="5.42456" y1="56.0813" x2="109.009" y2="56.0813" gradientUnits="userSpaceOnUse">
<stop offset="0.04" stop-color="#B67C2B"/>
<stop offset="0.18" stop-color="#B67D2D"/>
<stop offset="0.25" stop-color="#B98234"/>
<stop offset="0.3" stop-color="#BD8A41"/>
<stop offset="0.34" stop-color="#C49554"/>
<stop offset="0.38" stop-color="#CCA46C"/>
<stop offset="0.42" stop-color="#D6B689"/>
<stop offset="0.45" stop-color="#E2CCAD"/>
<stop offset="0.48" stop-color="#F0E4D4"/>
<stop offset="0.51" stop-color="white"/>
<stop offset="0.54" stop-color="#F5EDE2"/>
<stop offset="0.6" stop-color="#E4D0B2"/>
<stop offset="0.66" stop-color="#D6B689"/>
<stop offset="0.72" stop-color="#CBA267"/>
<stop offset="0.79" stop-color="#C2924D"/>
<stop offset="0.86" stop-color="#BC863A"/>
<stop offset="0.92" stop-color="#B8802F"/>
<stop offset="1" stop-color="#B77E2C"/>
</linearGradient>
<linearGradient id="paint4_linear_279_917" x1="16.8181" y1="67.3606" x2="34.5432" y2="67.3606" gradientUnits="userSpaceOnUse">
<stop offset="0.04" stop-color="#B67C2B"/>
<stop offset="0.18" stop-color="#B67D2D"/>
<stop offset="0.25" stop-color="#B98234"/>
<stop offset="0.3" stop-color="#BD8A41"/>
<stop offset="0.34" stop-color="#C49554"/>
<stop offset="0.38" stop-color="#CCA46C"/>
<stop offset="0.42" stop-color="#D6B689"/>
<stop offset="0.45" stop-color="#E2CCAD"/>
<stop offset="0.48" stop-color="#F0E4D4"/>
<stop offset="0.51" stop-color="white"/>
<stop offset="0.54" stop-color="#F5EDE2"/>
<stop offset="0.6" stop-color="#E4D0B2"/>
<stop offset="0.66" stop-color="#D6B689"/>
<stop offset="0.72" stop-color="#CBA267"/>
<stop offset="0.79" stop-color="#C2924D"/>
<stop offset="0.86" stop-color="#BC863A"/>
<stop offset="0.92" stop-color="#B8802F"/>
<stop offset="1" stop-color="#B77E2C"/>
</linearGradient>
<linearGradient id="paint5_linear_279_917" x1="24.1138" y1="33.9078" x2="34.5461" y2="33.9078" gradientUnits="userSpaceOnUse">
<stop offset="0.04" stop-color="#B67C2B"/>
<stop offset="0.18" stop-color="#B67D2D"/>
<stop offset="0.25" stop-color="#B98234"/>
<stop offset="0.3" stop-color="#BD8A41"/>
<stop offset="0.34" stop-color="#C49554"/>
<stop offset="0.38" stop-color="#CCA46C"/>
<stop offset="0.42" stop-color="#D6B689"/>
<stop offset="0.45" stop-color="#E2CCAD"/>
<stop offset="0.48" stop-color="#F0E4D4"/>
<stop offset="0.51" stop-color="white"/>
<stop offset="0.54" stop-color="#F5EDE2"/>
<stop offset="0.6" stop-color="#E4D0B2"/>
<stop offset="0.66" stop-color="#D6B689"/>
<stop offset="0.72" stop-color="#CBA267"/>
<stop offset="0.79" stop-color="#C2924D"/>
<stop offset="0.86" stop-color="#BC863A"/>
<stop offset="0.92" stop-color="#B8802F"/>
<stop offset="1" stop-color="#B77E2C"/>
</linearGradient>
<linearGradient id="paint6_linear_279_917" x1="28.231" y1="48.1425" x2="33.8887" y2="48.1425" gradientUnits="userSpaceOnUse">
<stop offset="0.04" stop-color="#B67C2B"/>
<stop offset="0.18" stop-color="#B67D2D"/>
<stop offset="0.25" stop-color="#B98234"/>
<stop offset="0.3" stop-color="#BD8A41"/>
<stop offset="0.34" stop-color="#C49554"/>
<stop offset="0.38" stop-color="#CCA46C"/>
<stop offset="0.42" stop-color="#D6B689"/>
<stop offset="0.45" stop-color="#E2CCAD"/>
<stop offset="0.48" stop-color="#F0E4D4"/>
<stop offset="0.51" stop-color="white"/>
<stop offset="0.54" stop-color="#F5EDE2"/>
<stop offset="0.6" stop-color="#E4D0B2"/>
<stop offset="0.66" stop-color="#D6B689"/>
<stop offset="0.72" stop-color="#CBA267"/>
<stop offset="0.79" stop-color="#C2924D"/>
<stop offset="0.86" stop-color="#BC863A"/>
<stop offset="0.92" stop-color="#B8802F"/>
<stop offset="1" stop-color="#B77E2C"/>
</linearGradient>
<linearGradient id="paint7_linear_279_917" x1="37.3251" y1="52.0835" x2="40.4038" y2="52.0835" gradientUnits="userSpaceOnUse">
<stop offset="0.04" stop-color="#B67C2B"/>
<stop offset="0.18" stop-color="#B67D2D"/>
<stop offset="0.25" stop-color="#B98234"/>
<stop offset="0.3" stop-color="#BD8A41"/>
<stop offset="0.34" stop-color="#C49554"/>
<stop offset="0.38" stop-color="#CCA46C"/>
<stop offset="0.42" stop-color="#D6B689"/>
<stop offset="0.45" stop-color="#E2CCAD"/>
<stop offset="0.48" stop-color="#F0E4D4"/>
<stop offset="0.51" stop-color="white"/>
<stop offset="0.54" stop-color="#F5EDE2"/>
<stop offset="0.6" stop-color="#E4D0B2"/>
<stop offset="0.66" stop-color="#D6B689"/>
<stop offset="0.72" stop-color="#CBA267"/>
<stop offset="0.79" stop-color="#C2924D"/>
<stop offset="0.86" stop-color="#BC863A"/>
<stop offset="0.92" stop-color="#B8802F"/>
<stop offset="1" stop-color="#B77E2C"/>
</linearGradient>
<linearGradient id="paint8_linear_279_917" x1="37.6771" y1="72.663" x2="44.1073" y2="72.663" gradientUnits="userSpaceOnUse">
<stop offset="0.04" stop-color="#B67C2B"/>
<stop offset="0.18" stop-color="#B67D2D"/>
<stop offset="0.25" stop-color="#B98234"/>
<stop offset="0.3" stop-color="#BD8A41"/>
<stop offset="0.34" stop-color="#C49554"/>
<stop offset="0.38" stop-color="#CCA46C"/>
<stop offset="0.42" stop-color="#D6B689"/>
<stop offset="0.45" stop-color="#E2CCAD"/>
<stop offset="0.48" stop-color="#F0E4D4"/>
<stop offset="0.51" stop-color="white"/>
<stop offset="0.54" stop-color="#F5EDE2"/>
<stop offset="0.6" stop-color="#E4D0B2"/>
<stop offset="0.66" stop-color="#D6B689"/>
<stop offset="0.72" stop-color="#CBA267"/>
<stop offset="0.79" stop-color="#C2924D"/>
<stop offset="0.86" stop-color="#BC863A"/>
<stop offset="0.92" stop-color="#B8802F"/>
<stop offset="1" stop-color="#B77E2C"/>
</linearGradient>
<linearGradient id="paint9_linear_279_917" x1="37.3568" y1="63.2507" x2="49.5937" y2="63.2507" gradientUnits="userSpaceOnUse">
<stop offset="0.04" stop-color="#B67C2B"/>
<stop offset="0.18" stop-color="#B67D2D"/>
<stop offset="0.25" stop-color="#B98234"/>
<stop offset="0.3" stop-color="#BD8A41"/>
<stop offset="0.34" stop-color="#C49554"/>
<stop offset="0.38" stop-color="#CCA46C"/>
<stop offset="0.42" stop-color="#D6B689"/>
<stop offset="0.45" stop-color="#E2CCAD"/>
<stop offset="0.48" stop-color="#F0E4D4"/>
<stop offset="0.51" stop-color="white"/>
<stop offset="0.54" stop-color="#F5EDE2"/>
<stop offset="0.6" stop-color="#E4D0B2"/>
<stop offset="0.66" stop-color="#D6B689"/>
<stop offset="0.72" stop-color="#CBA267"/>
<stop offset="0.79" stop-color="#C2924D"/>
<stop offset="0.86" stop-color="#BC863A"/>
<stop offset="0.92" stop-color="#B8802F"/>
<stop offset="1" stop-color="#B77E2C"/>
</linearGradient>
<linearGradient id="paint10_linear_279_917" x1="46.7908" y1="57.4052" x2="66.9387" y2="57.4052" gradientUnits="userSpaceOnUse">
<stop offset="0.04" stop-color="#B67C2B"/>
<stop offset="0.18" stop-color="#B67D2D"/>
<stop offset="0.25" stop-color="#B98234"/>
<stop offset="0.3" stop-color="#BD8A41"/>
<stop offset="0.34" stop-color="#C49554"/>
<stop offset="0.38" stop-color="#CCA46C"/>
<stop offset="0.42" stop-color="#D6B689"/>
<stop offset="0.45" stop-color="#E2CCAD"/>
<stop offset="0.48" stop-color="#F0E4D4"/>
<stop offset="0.51" stop-color="white"/>
<stop offset="0.54" stop-color="#F5EDE2"/>
<stop offset="0.6" stop-color="#E4D0B2"/>
<stop offset="0.66" stop-color="#D6B689"/>
<stop offset="0.72" stop-color="#CBA267"/>
<stop offset="0.79" stop-color="#C2924D"/>
<stop offset="0.86" stop-color="#BC863A"/>
<stop offset="0.92" stop-color="#B8802F"/>
<stop offset="1" stop-color="#B77E2C"/>
</linearGradient>
<linearGradient id="paint11_linear_279_917" x1="70.7572" y1="52.0835" x2="73.8359" y2="52.0835" gradientUnits="userSpaceOnUse">
<stop offset="0.04" stop-color="#B67C2B"/>
<stop offset="0.18" stop-color="#B67D2D"/>
<stop offset="0.25" stop-color="#B98234"/>
<stop offset="0.3" stop-color="#BD8A41"/>
<stop offset="0.34" stop-color="#C49554"/>
<stop offset="0.38" stop-color="#CCA46C"/>
<stop offset="0.42" stop-color="#D6B689"/>
<stop offset="0.45" stop-color="#E2CCAD"/>
<stop offset="0.48" stop-color="#F0E4D4"/>
<stop offset="0.51" stop-color="white"/>
<stop offset="0.54" stop-color="#F5EDE2"/>
<stop offset="0.6" stop-color="#E4D0B2"/>
<stop offset="0.66" stop-color="#D6B689"/>
<stop offset="0.72" stop-color="#CBA267"/>
<stop offset="0.79" stop-color="#C2924D"/>
<stop offset="0.86" stop-color="#BC863A"/>
<stop offset="0.92" stop-color="#B8802F"/>
<stop offset="1" stop-color="#B77E2C"/>
</linearGradient>
<linearGradient id="paint12_linear_279_917" x1="76.5912" y1="49.8051" x2="83.0214" y2="49.8051" gradientUnits="userSpaceOnUse">
<stop offset="0.04" stop-color="#B67C2B"/>
<stop offset="0.18" stop-color="#B67D2D"/>
<stop offset="0.25" stop-color="#B98234"/>
<stop offset="0.3" stop-color="#BD8A41"/>
<stop offset="0.34" stop-color="#C49554"/>
<stop offset="0.38" stop-color="#CCA46C"/>
<stop offset="0.42" stop-color="#D6B689"/>
<stop offset="0.45" stop-color="#E2CCAD"/>
<stop offset="0.48" stop-color="#F0E4D4"/>
<stop offset="0.51" stop-color="white"/>
<stop offset="0.54" stop-color="#F5EDE2"/>
<stop offset="0.6" stop-color="#E4D0B2"/>
<stop offset="0.66" stop-color="#D6B689"/>
<stop offset="0.72" stop-color="#CBA267"/>
<stop offset="0.79" stop-color="#C2924D"/>
<stop offset="0.86" stop-color="#BC863A"/>
<stop offset="0.92" stop-color="#B8802F"/>
<stop offset="1" stop-color="#B77E2C"/>
</linearGradient>
<linearGradient id="paint13_linear_279_917" x1="70.7843" y1="63.2507" x2="83.0211" y2="63.2507" gradientUnits="userSpaceOnUse">
<stop offset="0.04" stop-color="#B67C2B"/>
<stop offset="0.18" stop-color="#B67D2D"/>
<stop offset="0.25" stop-color="#B98234"/>
<stop offset="0.3" stop-color="#BD8A41"/>
<stop offset="0.34" stop-color="#C49554"/>
<stop offset="0.38" stop-color="#CCA46C"/>
<stop offset="0.42" stop-color="#D6B689"/>
<stop offset="0.45" stop-color="#E2CCAD"/>
<stop offset="0.48" stop-color="#F0E4D4"/>
<stop offset="0.51" stop-color="white"/>
<stop offset="0.54" stop-color="#F5EDE2"/>
<stop offset="0.6" stop-color="#E4D0B2"/>
<stop offset="0.66" stop-color="#D6B689"/>
<stop offset="0.72" stop-color="#CBA267"/>
<stop offset="0.79" stop-color="#C2924D"/>
<stop offset="0.86" stop-color="#BC863A"/>
<stop offset="0.92" stop-color="#B8802F"/>
<stop offset="1" stop-color="#B77E2C"/>
</linearGradient>
<linearGradient id="paint14_linear_279_917" x1="80.2454" y1="58.0019" x2="97.6264" y2="58.0019" gradientUnits="userSpaceOnUse">
<stop offset="0.04" stop-color="#B67C2B"/>
<stop offset="0.18" stop-color="#B67D2D"/>
<stop offset="0.25" stop-color="#B98234"/>
<stop offset="0.3" stop-color="#BD8A41"/>
<stop offset="0.34" stop-color="#C49554"/>
<stop offset="0.38" stop-color="#CCA46C"/>
<stop offset="0.42" stop-color="#D6B689"/>
<stop offset="0.45" stop-color="#E2CCAD"/>
<stop offset="0.48" stop-color="#F0E4D4"/>
<stop offset="0.51" stop-color="white"/>
<stop offset="0.54" stop-color="#F5EDE2"/>
<stop offset="0.6" stop-color="#E4D0B2"/>
<stop offset="0.66" stop-color="#D6B689"/>
<stop offset="0.72" stop-color="#CBA267"/>
<stop offset="0.79" stop-color="#C2924D"/>
<stop offset="0.86" stop-color="#BC863A"/>
<stop offset="0.92" stop-color="#B8802F"/>
<stop offset="1" stop-color="#B77E2C"/>
</linearGradient>
</defs>
</svg>
